<svg viewBox="0 0 900 320" role="img" aria-label="Binding diagram">
  <defs>
    <linearGradient id="sky" x1="0" y1="0" x2="1" y2="1">
      <stop offset="0" stop-color="#e8f3ff"/>
      <stop offset="1" stop-color="#d6f5e8"/>
    </linearGradient>
    <linearGradient id="deep" x1="0" y1="0" x2="1" y2="1">
      <stop offset="0" stop-color="#0b6eff"/>
      <stop offset="1" stop-color="#16b879"/>
    </linearGradient>
  </defs>
  <rect x="140" y="100" rx="18" ry="18" width="260" height="70" fill="url(#sky)" stroke="#7fb3e6" stroke-width="2"/>
<text x="270.0" y="139.0" text-anchor="middle" font-size="13" fill="#0b1a2b" font-family="Space Grotesk">Role</text>
<rect x="500" y="100" rx="18" ry="18" width="260" height="70" fill="url(#sky)" stroke="#7fb3e6" stroke-width="2"/>
<text x="630.0" y="139.0" text-anchor="middle" font-size="13" fill="#0b1a2b" font-family="Space Grotesk">Filler</text>
<rect x="320" y="200" rx="18" ry="18" width="260" height="70" fill="url(#sky)" stroke="#7fb3e6" stroke-width="2"/>
<text x="450.0" y="239.0" text-anchor="middle" font-size="13" fill="#0b1a2b" font-family="Space Grotesk">Bound composite</text>
<line x1="320" y1="135" x2="370" y2="200" stroke="#0b6eff" stroke-width="4" stroke-linecap="round"/>
<polygon points="360,193 360,207 380,200" fill="#16b879"/>
<line x1="630" y1="135" x2="520" y2="200" stroke="#0b6eff" stroke-width="4" stroke-linecap="round"/>
<polygon points="510,193 510,207 530,200" fill="#16b879"/>
<rect x="140" y="275" width="360" height="78" rx="16" ry="16" fill="none" stroke="#7fb3e6" stroke-width="2"/>
<text x="156" y="297" text-anchor="start" font-size="12" fill="#2f4a63" font-family="Space Grotesk">Legend</text>
<text x="156" y="319" text-anchor="start" font-size="12" fill="#2f4a63" font-family="Space Grotesk">Encodes relational structure.</text>
<text x="156" y="337" text-anchor="start" font-size="12" fill="#2f4a63" font-family="Space Grotesk">Used for slot-role representations.</text>
<text x="156" y="355" text-anchor="start" font-size="12" fill="#2f4a63" font-family="Space Grotesk">Improves structured retrieval.</text>
</svg>