<svg xmlns="http://www.w3.org/2000/svg" viewBox="0 0 900 329" role="img" aria-label="Bundling diagram">
  <defs>
    <linearGradient id="sky" x1="0" y1="0" x2="1" y2="1">
      <stop offset="0" stop-color="#e8f3ff"/>
      <stop offset="1" stop-color="#d6f5e8"/>
    </linearGradient>
    <linearGradient id="deep" x1="0" y1="0" x2="1" y2="1">
      <stop offset="0" stop-color="#0b6eff"/>
      <stop offset="1" stop-color="#16b879"/>
    </linearGradient>
  </defs>
  <rect x="130" y="90" rx="18" ry="18" width="200" height="60" fill="url(#sky)" stroke="#7fb3e6" stroke-width="1.2"/>
<text x="230.0" y="124.0" text-anchor="middle" font-size="13" fill="#0b1a2b" font-family="Space Grotesk">A</text>
<rect x="350" y="90" rx="18" ry="18" width="200" height="60" fill="url(#sky)" stroke="#7fb3e6" stroke-width="1.2"/>
<text x="450.0" y="124.0" text-anchor="middle" font-size="13" fill="#0b1a2b" font-family="Space Grotesk">B</text>
<rect x="570" y="90" rx="18" ry="18" width="200" height="60" fill="url(#sky)" stroke="#7fb3e6" stroke-width="1.2"/>
<text x="670.0" y="124.0" text-anchor="middle" font-size="13" fill="#0b1a2b" font-family="Space Grotesk">C</text>
<rect x="350" y="200" rx="18" ry="18" width="220" height="70" fill="url(#sky)" stroke="#7fb3e6" stroke-width="1.2"/>
<text x="460.0" y="239.0" text-anchor="middle" font-size="13" fill="#0b1a2b" font-family="Space Grotesk">Prototype</text>
<path d="M 230 150 C 285 180, 330 195, 360 215" fill="none" stroke="#0b6eff" stroke-width="1.8" stroke-linecap="round"/>
<path d="M 450 150 C 440 175, 435 195, 435 215" fill="none" stroke="#0b6eff" stroke-width="1.8" stroke-linecap="round"/>
<path d="M 670 150 C 610 180, 570 195, 560 215" fill="none" stroke="#0b6eff" stroke-width="1.8" stroke-linecap="round"/>
<rect x="130" y="284" width="360" height="78" rx="16" ry="16" fill="none" stroke="#7fb3e6" stroke-width="1.2"/>
<text x="146" y="306" text-anchor="start" font-size="12" fill="#2f4a63" font-family="Space Grotesk">Legend</text>
<text x="146" y="328" text-anchor="start" font-size="12" fill="#2f4a63" font-family="Space Grotesk">Aggregates evidence across instances.</text>
<text x="146" y="346" text-anchor="start" font-size="12" fill="#2f4a63" font-family="Space Grotesk">Builds paraphrase and schema prototypes.</text>
<text x="146" y="364" text-anchor="start" font-size="12" fill="#2f4a63" font-family="Space Grotesk">Supports federated merging.</text>
</svg>