<svg viewBox="0 0 800 240" role="img" aria-label="Event stream diagram">
  <defs>
    <linearGradient id="sky" x1="0" y1="0" x2="1" y2="1">
      <stop offset="0" stop-color="#e8f3ff"/>
      <stop offset="1" stop-color="#d6f5e8"/>
    </linearGradient>
    <linearGradient id="deep" x1="0" y1="0" x2="1" y2="1">
      <stop offset="0" stop-color="#0b6eff"/>
      <stop offset="1" stop-color="#16b879"/>
    </linearGradient>
  </defs>
  <rect x="50" y="40" rx="12" ry="12" width="200" height="60" fill="url(#sky)" stroke="#7fb3e6" stroke-width="2"/>
  <text x="150" y="75" text-anchor="middle" font-size="13" fill="#0b1a2b" font-family="Space Grotesk">Typed events</text>
  <rect x="290" y="40" rx="12" ry="12" width="200" height="60" fill="url(#sky)" stroke="#7fb3e6" stroke-width="2"/>
  <text x="390" y="75" text-anchor="middle" font-size="13" fill="#0b1a2b" font-family="Space Grotesk">Discrete payload</text>
  <rect x="530" y="40" rx="12" ry="12" width="200" height="60" fill="url(#sky)" stroke="#7fb3e6" stroke-width="2"/>
  <text x="630" y="75" text-anchor="middle" font-size="13" fill="#0b1a2b" font-family="Space Grotesk">Context path</text>
  <line x1="250" y="70" x2="290" y2="70" stroke="url(#deep)" stroke-width="3" stroke-linecap="round"/>
  <polygon points="280,65 280,75 290,70" fill="#16b879"/>
  <line x1="490" y1="70" x2="530" y2="70" stroke="url(#deep)" stroke-width="3" stroke-linecap="round"/>
  <polygon points="520,65 520,75 530,70" fill="#16b879"/>
  <rect x="150" y="130" rx="12" ry="12" width="480" height="50" fill="url(#sky)" stroke="#7fb3e6" stroke-width="2"/>
  <text x="390" y="160" text-anchor="middle" font-size="13" fill="#0b1a2b" font-family="Space Grotesk">Separators define scope for closure</text>
  <line x1="630" y1="100" x2="390" y2="130" stroke="#0b6eff" stroke-width="3" stroke-linecap="round"/>
  <polygon points="400,125 405,130 390,130" fill="#0b6eff"/>
</svg>