<svg xmlns="http://www.w3.org/2000/svg" viewBox="0 0 900 378.6" role="img" aria-label="Federated learning diagram">
  <defs>
    
    <linearGradient id="sky" x1="0" y1="0" x2="1" y2="1">
      <stop offset="0" stop-color="#e8f3ff"/>
      <stop offset="1" stop-color="#d6f5e8"/>
    </linearGradient>
    <linearGradient id="deep" x1="0" y1="0" x2="1" y2="1">
      <stop offset="0" stop-color="#0b6eff"/>
      <stop offset="1" stop-color="#16b879"/>
    </linearGradient>
  
    
    
  
    
    
  
    
    
  
    
    
  
    
    
  
    <marker id="arrowhead-0b6eff" markerWidth="8" markerHeight="8" refX="7" refY="4" orient="auto" markerUnits="userSpaceOnUse">
      <path d="M 1 1 L 7 4 L 1 7" fill="none" stroke="#0b6eff" stroke-width="1.3" stroke-linecap="round" stroke-linejoin="round"/>
    </marker>
  </defs>
  <rect x="90" y="70" rx="18" ry="18" width="200" height="60" fill="url(#sky)" stroke="#7fb3e6" stroke-width="1.2"/>
<text x="190.0" y="104.0" text-anchor="middle" font-size="13" fill="#0b1a2b" font-family="Space Grotesk">Client A</text>
<rect x="90" y="150" rx="18" ry="18" width="200" height="60" fill="url(#sky)" stroke="#7fb3e6" stroke-width="1.2"/>
<text x="190.0" y="184.0" text-anchor="middle" font-size="13" fill="#0b1a2b" font-family="Space Grotesk">Client B</text>
<rect x="90" y="230" rx="18" ry="18" width="200" height="60" fill="url(#sky)" stroke="#7fb3e6" stroke-width="1.2"/>
<text x="190.0" y="264.0" text-anchor="middle" font-size="13" fill="#0b1a2b" font-family="Space Grotesk">Client C</text>
<rect x="360" y="140" rx="18" ry="18" width="240" height="80" fill="url(#sky)" stroke="#7fb3e6" stroke-width="1.2"/>
<text x="480.0" y="184.0" text-anchor="middle" font-size="13" fill="#0b1a2b" font-family="Space Grotesk">Aggregation</text>
<rect x="650" y="120" rx="18" ry="18" width="200" height="80" fill="url(#sky)" stroke="#7fb3e6" stroke-width="1.2"/>
<text x="750.0" y="164.0" text-anchor="middle" font-size="13" fill="#0b1a2b" font-family="Space Grotesk">Shared</text>
<rect x="650" y="215" rx="18" ry="18" width="200" height="80" fill="url(#sky)" stroke="#7fb3e6" stroke-width="1.2"/>
<text x="750.0" y="259.0" text-anchor="middle" font-size="13" fill="#0b1a2b" font-family="Space Grotesk">Validation</text>
<line x1="290" y1="100" x2="360" y2="180" stroke="#0b6eff" stroke-width="1.8" stroke-linecap="round" marker-end="url(#arrowhead-0b6eff)"/>

<line x1="290" y1="180" x2="360" y2="180" stroke="#0b6eff" stroke-width="1.8" stroke-linecap="round" marker-end="url(#arrowhead-0b6eff)"/>

<line x1="290" y1="260" x2="360" y2="180" stroke="#0b6eff" stroke-width="1.8" stroke-linecap="round" marker-end="url(#arrowhead-0b6eff)"/>

<line x1="600" y1="180" x2="650" y2="160" stroke="#0b6eff" stroke-width="1.8" stroke-linecap="round" marker-end="url(#arrowhead-0b6eff)"/>

<line x1="750" y1="200" x2="750" y2="215" stroke="#0b6eff" stroke-width="1.8" stroke-linecap="round"/>

<rect x="360" y="285" width="360" height="91.6" rx="16" ry="16" fill="none" stroke="#7fb3e6" stroke-width="1.2"/>
<text x="376" y="307" text-anchor="start" font-size="12" fill="#2f4a63" font-family="Space Grotesk">Legend</text>
<text x="376" y="329" text-anchor="start" font-size="12" fill="#2f4a63" font-family="Space Grotesk">Share artifacts, not raw data.</text>
<text x="376" y="347" text-anchor="start" font-size="12" fill="#2f4a63" font-family="Space Grotesk">Validate before promotion.</text>
<text x="376" y="365" text-anchor="start" font-size="12" fill="#2f4a63" font-family="Space Grotesk">Supports modular libraries.</text>
</svg>