<svg xmlns="http://www.w3.org/2000/svg" viewBox="0 0 800 240" role="img" aria-label="Federation diagram">
  <defs>
    <linearGradient id="sky" x1="0" y1="0" x2="1" y2="1">
      <stop offset="0" stop-color="#e8f3ff"/>
      <stop offset="1" stop-color="#d6f5e8"/>
    </linearGradient>
    <linearGradient id="deep" x1="0" y1="0" x2="1" y2="1">
      <stop offset="0" stop-color="#0b6eff"/>
      <stop offset="1" stop-color="#16b879"/>
    </linearGradient>
    <marker id="arrowhead" markerWidth="10" markerHeight="10" refX="9" refY="5" orient="auto">
      <path d="M 0 0 L 10 5 L 0 10 Z" fill="#16b879"/>
    </marker>
  
    <marker id="arrowhead-deep" markerWidth="8" markerHeight="8" refX="7" refY="4" orient="auto" markerUnits="strokeWidth">
      <path d="M 0 0 L 8 4 L 0 8 Z" fill="url(#deep)" stroke="url(#deep)" stroke-width="0"/>
    </marker>
    <marker id="arrowhead-0b6eff" markerWidth="8" markerHeight="8" refX="7" refY="4" orient="auto" markerUnits="strokeWidth">
      <path d="M 0 0 L 8 4 L 0 8 Z" fill="#0b6eff" stroke="#0b6eff" stroke-width="0"/>
    </marker>
  </defs>
  <rect x="50" y="40" rx="12" ry="12" width="160" height="50" fill="url(#sky)" stroke="#7fb3e6" stroke-width="1.2"/>
  <text x="130" y="70" text-anchor="middle" font-size="13" fill="#0b1a2b" font-family="Space Grotesk">Client A</text>
  <rect x="50" y="100" rx="12" ry="12" width="160" height="50" fill="url(#sky)" stroke="#7fb3e6" stroke-width="1.2"/>
  <text x="130" y="130" text-anchor="middle" font-size="13" fill="#0b1a2b" font-family="Space Grotesk">Client B</text>
  <rect x="50" y="160" rx="12" ry="12" width="160" height="50" fill="url(#sky)" stroke="#7fb3e6" stroke-width="1.2"/>
  <text x="130" y="190" text-anchor="middle" font-size="13" fill="#0b1a2b" font-family="Space Grotesk">Client C</text>
  <rect x="300" y="100" rx="12" ry="12" width="200" height="50" fill="url(#sky)" stroke="#7fb3e6" stroke-width="1.2"/>
  <text x="400" y="130" text-anchor="middle" font-size="13" fill="#0b1a2b" font-family="Space Grotesk">Aggregation</text>
  <line x1="210" y1="65" x2="300" y2="125" stroke="url(#deep)" stroke-width="1.6" stroke-linecap="round" marker-end="url(#arrowhead-deep)"/>
  <line x1="210" y1="125" x2="300" y2="125" stroke="url(#deep)" stroke-width="1.6" stroke-linecap="round" marker-end="url(#arrowhead-deep)"/>
  <line x1="210" y1="185" x2="300" y2="125" stroke="url(#deep)" stroke-width="1.6" stroke-linecap="round" marker-end="url(#arrowhead-deep)"/>
  <rect x="550" y="70" rx="12" ry="12" width="180" height="50" fill="url(#sky)" stroke="#7fb3e6" stroke-width="1.2"/>
  <text x="640" y="100" text-anchor="middle" font-size="13" fill="#0b1a2b" font-family="Space Grotesk">Shared Library</text>
  <rect x="550" y="130" rx="12" ry="12" width="180" height="50" fill="url(#sky)" stroke="#7fb3e6" stroke-width="1.2"/>
  <text x="640" y="160" text-anchor="middle" font-size="13" fill="#0b1a2b" font-family="Space Grotesk">Health Checks</text>
  <line x1="500" y1="125" x2="550" y2="100" stroke="url(#deep)" stroke-width="1.8" stroke-linecap="round" marker-end="url(#arrowhead-deep)"/>
  <line x1="640" y1="120" x2="640" y2="130" stroke="#0b6eff" stroke-width="1.8" stroke-linecap="round"/>
  <text x="400" y="220" text-anchor="middle" font-size="12" fill="#2f4a63" font-family="Space Grotesk">Share artifacts, not data. Validate before promotion.</text>
</svg>
