<svg xmlns="http://www.w3.org/2000/svg" viewBox="0 0 900 320" role="img" aria-label="Hypervector diagram">
  <defs>
    <marker id="arrowhead" markerWidth="8" markerHeight="8" refX="7" refY="4" orient="auto" markerUnits="strokeWidth">
      <path d="M 0 0 L 8 4 L 0 8 Z" fill="context-stroke"/>
    </marker>
    <linearGradient id="sky" x1="0" y1="0" x2="1" y2="1">
      <stop offset="0" stop-color="#e8f3ff"/>
      <stop offset="1" stop-color="#d6f5e8"/>
    </linearGradient>
    <linearGradient id="deep" x1="0" y1="0" x2="1" y2="1">
      <stop offset="0" stop-color="#0b6eff"/>
      <stop offset="1" stop-color="#16b879"/>
    </linearGradient>
  </defs>
  <rect x="110" y="90" rx="18" ry="18" width="240" height="70" fill="url(#sky)" stroke="#7fb3e6" stroke-width="1.2"/>
<text x="230.0" y="129.0" text-anchor="middle" font-size="13" fill="#0b1a2b" font-family="Space Grotesk">Stable seed</text>
<rect x="370" y="90" rx="18" ry="18" width="240" height="70" fill="url(#sky)" stroke="#7fb3e6" stroke-width="1.2"/>
<text x="490.0" y="129.0" text-anchor="middle" font-size="13" fill="#0b1a2b" font-family="Space Grotesk">Hash</text>
<rect x="630" y="90" rx="18" ry="18" width="240" height="70" fill="url(#sky)" stroke="#7fb3e6" stroke-width="1.2"/>
<text x="750.0" y="129.0" text-anchor="middle" font-size="13" fill="#0b1a2b" font-family="Space Grotesk">Hypervector</text>
<line x1="350" y1="125" x2="370" y2="125" stroke="url(#deep)" stroke-width="1.8" stroke-linecap="round" marker-end="url(#arrowhead)"/>

<line x1="610" y1="125" x2="630" y2="125" stroke="url(#deep)" stroke-width="1.8" stroke-linecap="round" marker-end="url(#arrowhead)"/>

<rect x="210" y="190" rx="18" ry="18" width="520" height="70" fill="url(#sky)" stroke="#7fb3e6" stroke-width="1.2"/>
<text x="470.0" y="229.0" text-anchor="middle" font-size="13" fill="#0b1a2b" font-family="Space Grotesk">Used for similarity, binding, bundling</text>
<line x1="540" y1="160" x2="500" y2="190" stroke="#0b6eff" stroke-width="1.8" stroke-linecap="round" marker-end="url(#arrowhead)"/>

<rect x="110" y="265" width="360" height="78" rx="16" ry="16" fill="none" stroke="#7fb3e6" stroke-width="1.2"/>
<text x="126" y="287" text-anchor="start" font-size="12" fill="#2f4a63" font-family="Space Grotesk">Legend</text>
<text x="126" y="309" text-anchor="start" font-size="12" fill="#2f4a63" font-family="Space Grotesk">Deterministic keys support reproducibility.</text>
<text x="126" y="327" text-anchor="start" font-size="12" fill="#2f4a63" font-family="Space Grotesk">Operations build structured prototypes.</text>
<text x="126" y="345" text-anchor="start" font-size="12" fill="#2f4a63" font-family="Space Grotesk">Similarity accelerates search.</text>
</svg>