<svg xmlns="http://www.w3.org/2000/svg" viewBox="0 0 900 320" role="img" aria-label="Macro program diagram">
  <defs>
    <linearGradient id="sky" x1="0" y1="0" x2="1" y2="1">
      <stop offset="0" stop-color="#e8f3ff"/>
      <stop offset="1" stop-color="#d6f5e8"/>
    </linearGradient>
    <linearGradient id="deep" x1="0" y1="0" x2="1" y2="1">
      <stop offset="0" stop-color="#0b6eff"/>
      <stop offset="1" stop-color="#16b879"/>
    </linearGradient>
    <marker id="arrowhead" markerWidth="10" markerHeight="10" refX="9" refY="5" orient="auto">
      <path d="M 0 0 L 10 5 L 0 10 Z" fill="#16b879"/>
    </marker>
  </defs>
  <rect x="120" y="80" rx="18" ry="18" width="190" height="60" fill="url(#sky)" stroke="#7fb3e6" stroke-width="2"/>
<text x="215.0" y="114.0" text-anchor="middle" font-size="13" fill="#0b1a2b" font-family="Space Grotesk">Step 1</text>
<rect x="330" y="80" rx="18" ry="18" width="190" height="60" fill="url(#sky)" stroke="#7fb3e6" stroke-width="2"/>
<text x="425.0" y="114.0" text-anchor="middle" font-size="13" fill="#0b1a2b" font-family="Space Grotesk">Step 2</text>
<rect x="540" y="80" rx="18" ry="18" width="190" height="60" fill="url(#sky)" stroke="#7fb3e6" stroke-width="2"/>
<text x="635.0" y="114.0" text-anchor="middle" font-size="13" fill="#0b1a2b" font-family="Space Grotesk">Step 3</text>
<line x1="310" y1="110" x2="330" y2="110" stroke="url(#deep)" stroke-width="4" stroke-linecap="round" marker-end="url(#arrowhead)"/>
<line x1="520" y1="110" x2="540" y2="110" stroke="url(#deep)" stroke-width="4" stroke-linecap="round" marker-end="url(#arrowhead)"/>
<rect x="300" y="185" rx="18" ry="18" width="300" height="70" fill="url(#sky)" stroke="#7fb3e6" stroke-width="2"/>
<text x="450.0" y="224.0" text-anchor="middle" font-size="13" fill="#0b1a2b" font-family="Space Grotesk">Macro program</text>
<path d="M 215 140 C 260 170, 310 190, 350 205" fill="none" stroke="#0b6eff" stroke-width="4" stroke-linecap="round" marker-end="url(#arrowhead)"/>
<path d="M 425 140 C 430 165, 430 185, 450 205" fill="none" stroke="#0b6eff" stroke-width="4" stroke-linecap="round" marker-end="url(#arrowhead)"/>
<path d="M 635 140 C 590 170, 555 190, 550 205" fill="none" stroke="#0b6eff" stroke-width="4" stroke-linecap="round" marker-end="url(#arrowhead)"/>
<rect x="120" y="265" width="360" height="78" rx="16" ry="16" fill="none" stroke="#7fb3e6" stroke-width="2"/>
<text x="136" y="287" text-anchor="start" font-size="12" fill="#2f4a63" font-family="Space Grotesk">Legend</text>
<text x="136" y="309" text-anchor="start" font-size="12" fill="#2f4a63" font-family="Space Grotesk">Macros compress repeated routines.</text>
<text x="136" y="327" text-anchor="start" font-size="12" fill="#2f4a63" font-family="Space Grotesk">Promoted after stable success.</text>
<text x="136" y="345" text-anchor="start" font-size="12" fill="#2f4a63" font-family="Space Grotesk">Reduce search and cost.</text>
</svg>
