<svg viewBox="0 0 900 340" role="img" aria-label="Multimodal diagram">
  <defs>
    <linearGradient id="sky" x1="0" y1="0" x2="1" y2="1">
      <stop offset="0" stop-color="#e8f3ff"/>
      <stop offset="1" stop-color="#d6f5e8"/>
    </linearGradient>
    <linearGradient id="deep" x1="0" y1="0" x2="1" y2="1">
      <stop offset="0" stop-color="#0b6eff"/>
      <stop offset="1" stop-color="#16b879"/>
    </linearGradient>
  </defs>
  <rect x="90" y="70" rx="18" ry="18" width="200" height="60" fill="url(#sky)" stroke="#7fb3e6" stroke-width="2"/>
<text x="190.0" y="104.0" text-anchor="middle" font-size="13" fill="#0b1a2b" font-family="Space Grotesk">Text</text>
<rect x="90" y="150" rx="18" ry="18" width="200" height="60" fill="url(#sky)" stroke="#7fb3e6" stroke-width="2"/>
<text x="190.0" y="184.0" text-anchor="middle" font-size="13" fill="#0b1a2b" font-family="Space Grotesk">Audio</text>
<rect x="90" y="230" rx="18" ry="18" width="200" height="60" fill="url(#sky)" stroke="#7fb3e6" stroke-width="2"/>
<text x="190.0" y="264.0" text-anchor="middle" font-size="13" fill="#0b1a2b" font-family="Space Grotesk">Image/Video</text>
<rect x="360" y="140" rx="18" ry="18" width="260" height="80" fill="url(#sky)" stroke="#7fb3e6" stroke-width="2"/>
<text x="490.0" y="184.0" text-anchor="middle" font-size="13" fill="#0b1a2b" font-family="Space Grotesk">Event stream</text>
<rect x="660" y="140" rx="18" ry="18" width="180" height="80" fill="url(#sky)" stroke="#7fb3e6" stroke-width="2"/>
<text x="750.0" y="184.0" text-anchor="middle" font-size="13" fill="#0b1a2b" font-family="Space Grotesk">VM</text>
<line x1="290" y1="100" x2="360" y2="180" stroke="url(#deep)" stroke-width="4" stroke-linecap="round"/>
<polygon points="350,173 350,187 370,180" fill="#16b879"/>
<line x1="290" y1="180" x2="360" y2="180" stroke="url(#deep)" stroke-width="4" stroke-linecap="round"/>
<polygon points="350,173 350,187 370,180" fill="#16b879"/>
<line x1="290" y1="260" x2="360" y2="180" stroke="url(#deep)" stroke-width="4" stroke-linecap="round"/>
<polygon points="350,173 350,187 370,180" fill="#16b879"/>
<line x1="620" y1="180" x2="660" y2="180" stroke="url(#deep)" stroke-width="4" stroke-linecap="round"/>
<polygon points="650,173 650,187 670,180" fill="#16b879"/>
<rect x="360" y="275" width="360" height="78" rx="16" ry="16" fill="none" stroke="#7fb3e6" stroke-width="2"/>
<text x="376" y="297" text-anchor="start" font-size="12" fill="#2f4a63" font-family="Space Grotesk">Legend</text>
<text x="376" y="319" text-anchor="start" font-size="12" fill="#2f4a63" font-family="Space Grotesk">Inputs become discrete events.</text>
<text x="376" y="337" text-anchor="start" font-size="12" fill="#2f4a63" font-family="Space Grotesk">Structure carries scope.</text>
<text x="376" y="355" text-anchor="start" font-size="12" fill="#2f4a63" font-family="Space Grotesk">One core handles all modalities.</text>
</svg>