<svg xmlns="http://www.w3.org/2000/svg" viewBox="0 0 900 329" role="img" aria-label="Compiler diagram">
  <defs>
    <marker id="arrowhead" markerWidth="8" markerHeight="8" refX="7" refY="4" orient="auto" markerUnits="strokeWidth">
      <path d="M 0 0 L 8 4 L 0 8 Z" fill="context-stroke"/>
    </marker>
    <linearGradient id="sky" x1="0" y1="0" x2="1" y2="1">
      <stop offset="0" stop-color="#e8f3ff"/>
      <stop offset="1" stop-color="#d6f5e8"/>
    </linearGradient>
    <linearGradient id="deep" x1="0" y1="0" x2="1" y2="1">
      <stop offset="0" stop-color="#0b6eff"/>
      <stop offset="1" stop-color="#16b879"/>
    </linearGradient>
  
    <marker id="arrowhead-deep" markerWidth="8" markerHeight="8" refX="7" refY="4" orient="auto" markerUnits="strokeWidth">
      <path d="M 0 0 L 8 4 L 0 8 Z" fill="url(#deep)" stroke="url(#deep)" stroke-width="0"/>
    </marker>
    <marker id="arrowhead-0b6eff" markerWidth="8" markerHeight="8" refX="7" refY="4" orient="auto" markerUnits="strokeWidth">
      <path d="M 0 0 L 8 4 L 0 8 Z" fill="#0b6eff" stroke="#0b6eff" stroke-width="0"/>
    </marker>
  </defs>
  <rect x="90" y="90" rx="18" ry="18" width="240" height="70" fill="url(#sky)" stroke="#7fb3e6" stroke-width="1.2"/>
<text x="210.0" y="129.0" text-anchor="middle" font-size="13" fill="#0b1a2b" font-family="Space Grotesk">Question</text>
<rect x="350" y="90" rx="18" ry="18" width="240" height="70" fill="url(#sky)" stroke="#7fb3e6" stroke-width="1.2"/>
<text x="470.0" y="129.0" text-anchor="middle" font-size="13" fill="#0b1a2b" font-family="Space Grotesk">Schema</text>
<rect x="610" y="90" rx="18" ry="18" width="240" height="70" fill="url(#sky)" stroke="#7fb3e6" stroke-width="1.2"/>
<text x="730.0" y="129.0" text-anchor="middle" font-size="13" fill="#0b1a2b" font-family="Space Grotesk">Program</text>
<line x1="330" y1="125" x2="350" y2="125" stroke="url(#deep)" stroke-width="1.8" stroke-linecap="round" marker-end="url(#arrowhead-deep)"/>

<line x1="590" y1="125" x2="610" y2="125" stroke="url(#deep)" stroke-width="1.8" stroke-linecap="round" marker-end="url(#arrowhead-deep)"/>

<rect x="210" y="190" rx="18" ry="18" width="520" height="70" fill="url(#sky)" stroke="#7fb3e6" stroke-width="1.2"/>
<text x="470.0" y="229.0" text-anchor="middle" font-size="13" fill="#0b1a2b" font-family="Space Grotesk">Search + validation under closure</text>
<line x1="520" y1="160" x2="480" y2="190" stroke="#0b6eff" stroke-width="1.8" stroke-linecap="round" marker-end="url(#arrowhead-0b6eff)"/>

<rect x="90" y="274" width="360" height="78" rx="16" ry="16" fill="none" stroke="#7fb3e6" stroke-width="1.2"/>
<text x="106" y="296" text-anchor="start" font-size="12" fill="#2f4a63" font-family="Space Grotesk">Legend</text>
<text x="106" y="318" text-anchor="start" font-size="12" fill="#2f4a63" font-family="Space Grotesk">Compilation is hypothesis generation.</text>
<text x="106" y="336" text-anchor="start" font-size="12" fill="#2f4a63" font-family="Space Grotesk">Programs are executable artifacts.</text>
<text x="106" y="354" text-anchor="start" font-size="12" fill="#2f4a63" font-family="Space Grotesk">Closure enforces honesty.</text>
</svg>