<svg xmlns="http://www.w3.org/2000/svg" viewBox="0 0 800 280" role="img" aria-label="Question compilation diagram">
  <defs>
    
    <linearGradient id="sky" x1="0" y1="0" x2="1" y2="1">
      <stop offset="0" stop-color="#e8f3ff"/>
      <stop offset="1" stop-color="#d6f5e8"/>
    </linearGradient>
    <linearGradient id="deep" x1="0" y1="0" x2="1" y2="1">
      <stop offset="0" stop-color="#0b6eff"/>
      <stop offset="1" stop-color="#16b879"/>
    </linearGradient>
  
    
    
  
    
    
  
    
    
  
    
    
  
    
    
  
    <marker id="arrowhead-0b6eff" markerWidth="8" markerHeight="8" refX="7" refY="4" orient="auto" markerUnits="userSpaceOnUse">
      <path d="M 1 1 L 7 4 L 1 7" fill="none" stroke="#0b6eff" stroke-width="1.3" stroke-linecap="round" stroke-linejoin="round"/>
    </marker>
  </defs>
  <rect x="50" y="40" rx="12" ry="12" width="140" height="50" fill="url(#sky)" stroke="#7fb3e6" stroke-width="1.2"/>
  <text x="120" y="70" text-anchor="middle" font-size="13" fill="#0b1a2b" font-family="Space Grotesk">Normalize</text>
  <line x1="190" y1="65" x2="230" y2="65" stroke="#0b6eff" stroke-width="1.8" stroke-linecap="round" marker-end="url(#arrowhead-0b6eff)"/>
  
  <rect x="230" y="40" rx="12" ry="12" width="140" height="50" fill="url(#sky)" stroke="#7fb3e6" stroke-width="1.2"/>
  <text x="300" y="70" text-anchor="middle" font-size="13" fill="#0b1a2b" font-family="Space Grotesk">Retrieve</text>
  <line x1="370" y1="65" x2="410" y2="65" stroke="#0b6eff" stroke-width="1.8" stroke-linecap="round" marker-end="url(#arrowhead-0b6eff)"/>
  
  <rect x="410" y="40" rx="12" ry="12" width="140" height="50" fill="url(#sky)" stroke="#7fb3e6" stroke-width="1.2"/>
  <text x="480" y="70" text-anchor="middle" font-size="13" fill="#0b1a2b" font-family="Space Grotesk">Fill slots</text>
  <line x1="550" y1="65" x2="590" y2="65" stroke="#0b6eff" stroke-width="1.8" stroke-linecap="round" marker-end="url(#arrowhead-0b6eff)"/>
  
  <rect x="590" y="40" rx="12" ry="12" width="140" height="50" fill="url(#sky)" stroke="#7fb3e6" stroke-width="1.2"/>
  <text x="660" y="70" text-anchor="middle" font-size="13" fill="#0b1a2b" font-family="Space Grotesk">Instantiate</text>
  <rect x="150" y="120" rx="12" ry="12" width="480" height="50" fill="url(#sky)" stroke="#7fb3e6" stroke-width="1.2"/>
  <text x="390" y="150" text-anchor="middle" font-size="13" fill="#0b1a2b" font-family="Space Grotesk">Beam: search, MDL scoring, consistency checking</text>
  <line x1="480" y1="90" x2="390" y2="120" stroke="#0b6eff" stroke-width="1.8" stroke-linecap="round" marker-end="url(#arrowhead-0b6eff)"/>
  
  <rect x="150" y="200" rx="12" ry="12" width="220" height="50" fill="url(#sky)" stroke="#7fb3e6" stroke-width="1.2"/>
  <text x="260" y="230" text-anchor="middle" font-size="13" fill="#0b1a2b" font-family="Space Grotesk">Schema learning</text>
  <rect x="410" y="200" rx="12" ry="12" width="220" height="50" fill="url(#sky)" stroke="#7fb3e6" stroke-width="1.2"/>
  <text x="520" y="230" text-anchor="middle" font-size="13" fill="#0b1a2b" font-family="Space Grotesk">Multimodal coord</text>
  <line x1="390" y1="170" x2="260" y2="200" stroke="#0b6eff" stroke-width="1.6" stroke-dasharray="5,5"/>
  <line x1="390" y1="170" x2="520" y2="200" stroke="#0b6eff" stroke-width="1.6" stroke-dasharray="5,5"/>
</svg>