<svg xmlns="http://www.w3.org/2000/svg" viewBox="0 0 900 320" role="img" aria-label="Schema diagram">
  <defs>
    <linearGradient id="sky" x1="0" y1="0" x2="1" y2="1">
      <stop offset="0" stop-color="#e8f3ff"/>
      <stop offset="1" stop-color="#d6f5e8"/>
    </linearGradient>
    <linearGradient id="deep" x1="0" y1="0" x2="1" y2="1">
      <stop offset="0" stop-color="#0b6eff"/>
      <stop offset="1" stop-color="#16b879"/>
    </linearGradient>
  </defs>
  <rect x="120" y="70" width="660" height="180" rx="26" ry="26" fill="none" stroke="#0b6eff" stroke-width="3"/>
<text x="150" y="100" text-anchor="start" font-size="13" fill="#2f4a63" font-family="Space Grotesk">Schema frame</text>
<rect x="160" y="125" rx="18" ry="18" width="240" height="55" fill="url(#sky)" stroke="#7fb3e6" stroke-width="2"/>
<text x="280.0" y="156.5" text-anchor="middle" font-size="13" fill="#0b1a2b" font-family="Space Grotesk">Intent</text>
<rect x="420" y="125" rx="18" ry="18" width="320" height="55" fill="url(#sky)" stroke="#7fb3e6" stroke-width="2"/>
<text x="580.0" y="156.5" text-anchor="middle" font-size="13" fill="#0b1a2b" font-family="Space Grotesk">Typed slots</text>
<rect x="160" y="195" rx="18" ry="18" width="240" height="55" fill="url(#sky)" stroke="#7fb3e6" stroke-width="2"/>
<text x="280.0" y="226.5" text-anchor="middle" font-size="13" fill="#0b1a2b" font-family="Space Grotesk">Bindings</text>
<rect x="420" y="195" rx="18" ry="18" width="320" height="55" fill="url(#sky)" stroke="#7fb3e6" stroke-width="2"/>
<text x="580.0" y="226.5" text-anchor="middle" font-size="13" fill="#0b1a2b" font-family="Space Grotesk">Program skeleton</text>
<rect x="120" y="265" width="360" height="78" rx="16" ry="16" fill="none" stroke="#7fb3e6" stroke-width="2"/>
<text x="136" y="287" text-anchor="start" font-size="12" fill="#2f4a63" font-family="Space Grotesk">Legend</text>
<text x="136" y="309" text-anchor="start" font-size="12" fill="#2f4a63" font-family="Space Grotesk">Frames structure repeated intents.</text>
<text x="136" y="327" text-anchor="start" font-size="12" fill="#2f4a63" font-family="Space Grotesk">Slots are filled discretely.</text>
<text x="136" y="345" text-anchor="start" font-size="12" fill="#2f4a63" font-family="Space Grotesk">Skeletons become executable programs.</text>
</svg>