<svg xmlns="http://www.w3.org/2000/svg" viewBox="0 0 900 377.6" role="img" aria-label="Symbolic execution diagram">
  <defs>
    
    <linearGradient id="sky" x1="0" y1="0" x2="1" y2="1">
      <stop offset="0" stop-color="#e8f3ff"/>
      <stop offset="1" stop-color="#d6f5e8"/>
    </linearGradient>
    <linearGradient id="deep" x1="0" y1="0" x2="1" y2="1">
      <stop offset="0" stop-color="#0b6eff"/>
      <stop offset="1" stop-color="#16b879"/>
    </linearGradient>
  
    
  
    
  
    
  
    <marker id="arrowhead-deep" markerWidth="8" markerHeight="8" refX="7" refY="4" orient="auto" markerUnits="userSpaceOnUse">
      <path d="M 1 1 L 7 4 L 1 7" fill="none" stroke="url(#deep)" stroke-width="1.3" stroke-linecap="round" stroke-linejoin="round"/>
    </marker>
  </defs>
  <rect x="90" y="90" rx="18" ry="18" width="220" height="60" fill="url(#sky)" stroke="#7fb3e6" stroke-width="1.2"/>
<text x="200.0" y="124.0" text-anchor="middle" font-size="13" fill="#0b1a2b" font-family="Space Grotesk">Symbols</text>
<rect x="340" y="65" rx="18" ry="18" width="220" height="55" fill="url(#sky)" stroke="#7fb3e6" stroke-width="1.2"/>
<text x="450.0" y="96.5" text-anchor="middle" font-size="13" fill="#0b1a2b" font-family="Space Grotesk">Branch A</text>
<rect x="340" y="140" rx="18" ry="18" width="220" height="55" fill="url(#sky)" stroke="#7fb3e6" stroke-width="1.2"/>
<text x="450.0" y="171.5" text-anchor="middle" font-size="13" fill="#0b1a2b" font-family="Space Grotesk">Branch B</text>
<rect x="340" y="215" rx="18" ry="18" width="220" height="55" fill="url(#sky)" stroke="#7fb3e6" stroke-width="1.2"/>
<text x="450.0" y="246.5" text-anchor="middle" font-size="13" fill="#0b1a2b" font-family="Space Grotesk">Branch C</text>
<rect x="610" y="140" rx="18" ry="18" width="240" height="65" fill="url(#sky)" stroke="#7fb3e6" stroke-width="1.2"/>
<text x="730.0" y="176.5" text-anchor="middle" font-size="13" fill="#0b1a2b" font-family="Space Grotesk">Constraints</text>
<line x1="310" y1="120" x2="340" y2="92" stroke="url(#deep)" stroke-width="1.8" stroke-linecap="round" marker-end="url(#arrowhead-deep)"/>

<line x1="310" y1="120" x2="340" y2="167" stroke="url(#deep)" stroke-width="1.8" stroke-linecap="round" marker-end="url(#arrowhead-deep)"/>

<line x1="310" y1="120" x2="340" y2="242" stroke="url(#deep)" stroke-width="1.8" stroke-linecap="round" marker-end="url(#arrowhead-deep)"/>

<line x1="560" y1="167" x2="610" y2="172" stroke="url(#deep)" stroke-width="1.8" stroke-linecap="round" marker-end="url(#arrowhead-deep)"/>

<rect x="90" y="284" width="360" height="91.6" rx="16" ry="16" fill="none" stroke="#7fb3e6" stroke-width="1.2"/>
<text x="106" y="306" text-anchor="start" font-size="12" fill="#2f4a63" font-family="Space Grotesk">Legend</text>
<text x="106" y="328" text-anchor="start" font-size="12" fill="#2f4a63" font-family="Space Grotesk">Explore multiple paths explicitly.</text>
<text x="106" y="346" text-anchor="start" font-size="12" fill="#2f4a63" font-family="Space Grotesk">Prune with constraints.</text>
<text x="106" y="364" text-anchor="start" font-size="12" fill="#2f4a63" font-family="Space Grotesk">Budgets bound exploration.</text>
</svg>