<svg xmlns="http://www.w3.org/2000/svg" viewBox="0 0 800 280" role="img" aria-label="Training loop diagram">
  <defs>
    <linearGradient id="sky" x1="0" y1="0" x2="1" y2="1">
      <stop offset="0" stop-color="#e8f3ff"/>
      <stop offset="1" stop-color="#d6f5e8"/>
    </linearGradient>
    <linearGradient id="deep" x1="0" y1="0" x2="1" y2="1">
      <stop offset="0" stop-color="#0b6eff"/>
      <stop offset="1" stop-color="#16b879"/>
    </linearGradient>
  </defs>
  <rect x="50" y="40" rx="12" ry="12" width="220" height="60" fill="url(#sky)" stroke="#7fb3e6" stroke-width="2"/>
  <text x="160" y="75" text-anchor="middle" font-size="13" fill="#0b1a2b" font-family="Space Grotesk">Next-phrase prediction</text>
  <rect x="530" y="40" rx="12" ry="12" width="220" height="60" fill="url(#sky)" stroke="#7fb3e6" stroke-width="2"/>
  <text x="640" y="75" text-anchor="middle" font-size="13" fill="#0b1a2b" font-family="Space Grotesk">Program search</text>
  <rect x="290" y="140" rx="12" ry="12" width="220" height="60" fill="url(#sky)" stroke="#7fb3e6" stroke-width="2"/>
  <text x="400" y="175" text-anchor="middle" font-size="13" fill="#0b1a2b" font-family="Space Grotesk">Consolidation</text>
  <line x1="270" y1="70" x2="530" y2="70" stroke="url(#deep)" stroke-width="2" stroke-dasharray="5,5"/>
  <text x="400" y="65" text-anchor="middle" font-size="11" fill="#2f4a63" font-family="Space Grotesk">Compression pressure</text>
  <line x1="640" y1="100" x2="510" y2="140" stroke="url(#deep)" stroke-width="3" stroke-linecap="round"/>
  <polygon points="515,135 520,145 510,140" fill="#16b879"/>
  <line x1="290" y1="140" x2="160" y2="100" stroke="url(#deep)" stroke-width="3" stroke-linecap="round"/>
  <polygon points="165,105 170,110 160,100" fill="#16b879"/>
  <rect x="530" y="140" rx="12" ry="12" width="220" height="60" fill="url(#sky)" stroke="#7fb3e6" stroke-width="2"/>
  <text x="640" y="175" text-anchor="middle" font-size="13" fill="#0b1a2b" font-family="Space Grotesk">RL shaping</text>
  <line x1="640" y1="140" x2="640" y2="100" stroke="#0b6eff" stroke-width="3" stroke-linecap="round"/>
  <polygon points="635,110 645,110 640,100" fill="#0b6eff"/>
  <text x="400" y="230" text-anchor="middle" font-size="12" fill="#2f4a63" font-family="Space Grotesk">Two loops: predict (outer) and search (inner). Consolidate winners into macros.</text>
  <text x="400" y="250" text-anchor="middle" font-size="12" fill="#2f4a63" font-family="Space Grotesk">RL shapes selection. Consistency constrains consolidation.</text>
</svg>