<svg xmlns="http://www.w3.org/2000/svg" viewBox="0 0 800 240" role="img" aria-label="Trust diagram">
  <defs>
    <marker id="arrowhead" markerWidth="8" markerHeight="8" refX="7" refY="4" orient="auto" markerUnits="strokeWidth">
      <path d="M 0 0 L 8 4 L 0 8 Z" fill="context-stroke"/>
    </marker>
    <linearGradient id="sky" x1="0" y1="0" x2="1" y2="1">
      <stop offset="0" stop-color="#e8f3ff"/>
      <stop offset="1" stop-color="#d6f5e8"/>
    </linearGradient>
    <linearGradient id="deep" x1="0" y1="0" x2="1" y2="1">
      <stop offset="0" stop-color="#0b6eff"/>
      <stop offset="1" stop-color="#16b879"/>
    </linearGradient>
  
    <marker id="arrowhead-deep" markerWidth="8" markerHeight="8" refX="7" refY="4" orient="auto" markerUnits="strokeWidth">
      <path d="M 0 0 L 8 4 L 0 8 Z" fill="url(#deep)" stroke="url(#deep)" stroke-width="0"/>
    </marker>
    <marker id="arrowhead-0b6eff" markerWidth="8" markerHeight="8" refX="7" refY="4" orient="auto" markerUnits="strokeWidth">
      <path d="M 0 0 L 8 4 L 0 8 Z" fill="#0b6eff" stroke="#0b6eff" stroke-width="0"/>
    </marker>
  </defs>
  <rect x="50" y="40" rx="12" ry="12" width="200" height="60" fill="url(#sky)" stroke="#7fb3e6" stroke-width="1.2"/>
  <text x="150" y="75" text-anchor="middle" font-size="13" fill="#0b1a2b" font-family="Space Grotesk">Execution trace</text>
  <rect x="290" y="40" rx="12" ry="12" width="200" height="60" fill="url(#sky)" stroke="#7fb3e6" stroke-width="1.2"/>
  <text x="390" y="75" text-anchor="middle" font-size="13" fill="#0b1a2b" font-family="Space Grotesk">Consistency checks</text>
  <rect x="530" y="40" rx="12" ry="12" width="200" height="60" fill="url(#sky)" stroke="#7fb3e6" stroke-width="1.2"/>
  <text x="630" y="75" text-anchor="middle" font-size="13" fill="#0b1a2b" font-family="Space Grotesk">Disclosure</text>
  <line x1="250" y1="70" x2="290" y2="70" stroke="url(#deep)" stroke-width="1.8" stroke-linecap="round" marker-end="url(#arrowhead-deep)"/>
  
  <line x1="490" y1="70" x2="530" y2="70" stroke="url(#deep)" stroke-width="1.8" stroke-linecap="round" marker-end="url(#arrowhead-deep)"/>
  
  <rect x="150" y="130" rx="12" ry="12" width="480" height="50" fill="url(#sky)" stroke="#7fb3e6" stroke-width="1.2"/>
  <text x="390" y="160" text-anchor="middle" font-size="13" fill="#0b1a2b" font-family="Space Grotesk">User-visible: budgets, branches, conflicts, mode</text>
  <line x1="630" y1="100" x2="390" y2="130" stroke="#0b6eff" stroke-width="1.8" stroke-linecap="round" marker-end="url(#arrowhead-0b6eff)"/>
  
  <text x="390" y="210" text-anchor="middle" font-size="12" fill="#2f4a63" font-family="Space Grotesk">Trust is operational, not rhetorical. Expose what was explored.</text>
</svg>