<svg xmlns="http://www.w3.org/2000/svg" viewBox="0 0 800 280" role="img" aria-label="VM architecture diagram">
  <defs>
    
    <linearGradient id="sky" x1="0" y1="0" x2="1" y2="1">
      <stop offset="0" stop-color="#e8f3ff"/>
      <stop offset="1" stop-color="#d6f5e8"/>
    </linearGradient>
    <linearGradient id="deep" x1="0" y1="0" x2="1" y2="1">
      <stop offset="0" stop-color="#0b6eff"/>
      <stop offset="1" stop-color="#16b879"/>
    </linearGradient>
  
    
  
    
  
    
  
    <marker id="arrowhead-0b6eff" markerWidth="8" markerHeight="8" refX="7" refY="4" orient="auto" markerUnits="userSpaceOnUse">
      <path d="M 1 1 L 7 4 L 1 7" fill="none" stroke="#0b6eff" stroke-width="1.3" stroke-linecap="round" stroke-linejoin="round"/>
    </marker>
  </defs>
  <rect x="50" y="30" width="500" height="220" rx="16" ry="16" fill="none" stroke="#0b6eff" stroke-width="1.2"/>
  <text x="70" y="55" text-anchor="start" font-size="13" fill="#2f4a63" font-family="Space Grotesk">VM Core (Authority)</text>
  <rect x="80" y="70" rx="12" ry="12" width="130" height="40" fill="url(#sky)" stroke="#7fb3e6" stroke-width="1.2"/>
  <text x="145" y="95" text-anchor="middle" font-size="12" fill="#0b1a2b" font-family="Space Grotesk">Fact store</text>
  <rect x="230" y="70" rx="12" ry="12" width="130" height="40" fill="url(#sky)" stroke="#7fb3e6" stroke-width="1.2"/>
  <text x="295" y="95" text-anchor="middle" font-size="12" fill="#0b1a2b" font-family="Space Grotesk">Rule memory</text>
  <rect x="380" y="70" rx="12" ry="12" width="140" height="40" fill="url(#sky)" stroke="#7fb3e6" stroke-width="1.2"/>
  <text x="450" y="95" text-anchor="middle" font-size="12" fill="#0b1a2b" font-family="Space Grotesk">Context stack</text>
  <rect x="80" y="130" rx="12" ry="12" width="200" height="40" fill="url(#sky)" stroke="#7fb3e6" stroke-width="1.2"/>
  <text x="180" y="155" text-anchor="middle" font-size="12" fill="#0b1a2b" font-family="Space Grotesk">Binding env</text>
  <rect x="300" y="130" rx="12" ry="12" width="220" height="40" fill="url(#sky)" stroke="#7fb3e6" stroke-width="1.2"/>
  <text x="410" y="155" text-anchor="middle" font-size="12" fill="#0b1a2b" font-family="Space Grotesk">Macro-programs</text>
  <rect x="80" y="190" rx="12" ry="12" width="440" height="40" fill="url(#sky)" stroke="#7fb3e6" stroke-width="1.2"/>
  <text x="300" y="215" text-anchor="middle" font-size="12" fill="#0b1a2b" font-family="Space Grotesk">Execution Log (Audit)</text>
  <rect x="600" y="60" width="150" height="160" rx="16" ry="16" fill="none" stroke="#16b879" stroke-width="1.2"/>
  <text x="620" y="85" text-anchor="start" font-size="13" fill="#2f4a63" font-family="Space Grotesk">Retrieval</text>
  <rect x="620" y="100" rx="12" ry="12" width="110" height="40" fill="url(#sky)" stroke="#7fb3e6" stroke-width="1.2"/>
  <text x="675" y="125" text-anchor="middle" font-size="12" fill="#0b1a2b" font-family="Space Grotesk">VSA Index</text>
  <rect x="620" y="160" rx="12" ry="12" width="110" height="40" fill="url(#sky)" stroke="#7fb3e6" stroke-width="1.2"/>
  <text x="675" y="185" text-anchor="middle" font-size="12" fill="#0b1a2b" font-family="Space Grotesk">Top-K</text>
  <line x1="600" y1="140" x2="550" y2="140" stroke="#0b6eff" stroke-width="1.8" stroke-linecap="round" marker-end="url(#arrowhead-0b6eff)"/>
  
</svg>